Coordinates
version=1
nRows=17
nColumns=40
inDegrees=yes

Units are S.I. units (second, meters, Newtons, ...)
If the header above contains a line with 'inDegrees', this indicates whether rotational values are in degrees (yes) or radians (no).

endheader
time	pelvis_tilt	pelvis_list	pelvis_rotation	pelvis_tx	pelvis_ty	pelvis_tz	hip_flexion_r	hip_adduction_r	hip_rotation_r	knee_angle_r	knee_angle_r_beta	ankle_angle_r	subtalar_angle_r	mtp_angle_r	hip_flexion_l	hip_adduction_l	hip_rotation_l	knee_angle_l	knee_angle_l_beta	ankle_angle_l	subtalar_angle_l	mtp_angle_l	lumbar_extension	lumbar_bending	lumbar_rotation	arm_flex_r	arm_add_r	arm_rot_r	elbow_flex_r	pro_sup_r	wrist_flex_r	wrist_dev_r	arm_flex_l	arm_add_l	arm_rot_l	elbow_flex_l	pro_sup_l	wrist_flex_l	wrist_dev_l
      4.43500000	    -32.88440803	      1.28481268	      5.36442699	     -0.44861322	      0.66449990	     -0.89337925	     88.90715226	    -11.94851952	      8.05898625	     99.37005573	      1.73433465	     42.86024725	      0.00000000	      0.00000000	     88.83089275	    -10.09511228	      0.15720750	     98.48940153	      1.71896433	     42.26071561	      0.00000000	      0.00000000	    -15.84582270	     -2.99746993	     -6.15998091	     -2.05604391	    -43.85055181	     62.00379276	     80.30803319	     87.82825440	      0.00000000	      0.00000000	    -17.51805389	    -45.25007894	     45.97079631	     86.50112131	     87.89426567	      0.00000000	      0.00000000
      4.44000000	    -32.77694706	      1.28639914	      5.23123285	     -0.44689862	      0.66870218	     -0.89326328	     88.30238525	    -11.85374019	      7.88744037	     98.73327771	      1.72322078	     42.70074106	      0.00000000	      0.00000000	     88.20333845	    -10.05753064	      0.21303512	     97.87709908	      1.70827764	     42.14943465	      0.00000000	      0.00000000	    -15.35360197	     -3.02888584	     -6.07407836	     -2.02653053	    -43.82231294	     62.06487286	     80.24595193	     87.82927225	      0.00000000	      0.00000000	    -17.54429450	    -45.32270116	     46.08475325	     86.44996099	     87.89279760	      0.00000000	      0.00000000
      4.44500000	    -31.70081189	      1.29779339	      5.42934579	     -0.44359697	      0.67501761	     -0.89407762	     86.42218083	    -12.22605125	      7.56725918	     98.06350530	      1.71153104	     42.58959559	      0.00000000	      0.00000000	     86.37508024	     -9.68663080	      0.22747123	     97.17068479	      1.69594839	     42.33408092	      0.00000000	      0.00000000	    -15.90636305	     -2.83195581	     -6.26072209	     -1.56886346	    -43.61390223	     62.39250362	     79.55100244	     87.82203392	      0.00000000	      0.00000000	    -16.77463927	    -45.16443538	     46.69907807	     85.92296446	     87.89339826	      0.00000000	      0.00000000
      4.45000000	    -31.70926274	      1.29290895	      5.23072152	     -0.44191312	      0.67944106	     -0.89375997	     85.89716636	    -12.03364676	      7.39828037	     97.34121020	      1.69892462	     42.42613595	      0.00000000	      0.00000000	     85.80993728	     -9.71442570	      0.27694143	     96.43215085	      1.68305854	     42.10977992	      0.00000000	      0.00000000	    -15.26605190	     -2.89561007	     -6.13575983	     -1.54201955	    -43.59696823	     62.44522042	     79.56074686	     87.82293648	      0.00000000	      0.00000000	    -16.78558804	    -45.26809385	     46.78937696	     85.97686173	     87.89298967	      0.00000000	      0.00000000
      4.45500000	    -30.97302879	      1.28979137	      5.31746986	     -0.43910344	      0.68548780	     -0.89424096	     84.42396037	    -12.20456876	      7.15067298	     96.59804788	      1.68595399	     42.14465931	      0.00000000	      0.00000000	     84.36870415	     -9.48926648	      0.27871712	     95.68182416	      1.66996287	     42.00468939	      0.00000000	      0.00000000	    -15.41421518	     -2.78545162	     -6.19940341	     -1.26544698	    -43.40727289	     62.62215429	     78.97228354	     87.81972715	      0.00000000	      0.00000000	    -16.23995991	    -45.12588332	     47.23803586	     85.57266907	     87.89032465	      0.00000000	      0.00000000
      4.46000000	    -29.89706724	      1.10197939	      5.17634169	     -0.43557328	      0.69242552	     -0.89401496	     82.40951588	    -12.07709494	      6.58183951	     95.68944098	      1.67009580	     42.24528113	      0.00000000	      0.00000000	     82.53528065	     -9.62780620	      0.44038329	     94.89295100	      1.65619443	     42.12064597	      0.00000000	      0.00000000	    -15.83995223	     -2.52469581	     -5.89143103	     -0.96136136	    -43.25510029	     62.98793855	     78.54440574	     87.80612826	      0.00000000	      0.00000000	    -15.24198876	    -45.22811255	     48.44744529	     85.27206833	     87.86837308	      0.00000000	      0.00000000
      4.46500000	    -30.10767424	      1.10232417	      5.09060749	     -0.43422261	      0.69670083	     -0.89390206	     82.14611317	    -11.95638110	      6.52561831	     94.96217698	      1.65740265	     41.83122527	      0.00000000	      0.00000000	     82.20355931	     -9.55397687	      0.44709657	     94.10350713	      1.64241604	     41.96549215	      0.00000000	      0.00000000	    -14.91047173	     -2.59184099	     -5.81804184	     -1.05291456	    -43.14175822	     62.90610302	     78.34890895	     87.80195217	      0.00000000	      0.00000000	    -15.11105011	    -45.30607873	     48.61055305	     85.34265913	     87.84977079	      0.00000000	      0.00000000
      4.47000000	    -30.01964490	      1.12265510	      5.13542529	     -0.43210150	      0.70194673	     -0.89429463	     81.41393558	    -12.06060241	      6.36921538	     94.10818962	      1.64249776	     41.59396613	      0.00000000	      0.00000000	     81.45753262	     -9.34288276	      0.40781848	     93.23558608	      1.62726796	     41.70522034	      0.00000000	      0.00000000	    -14.28765503	     -2.58048912	     -5.89791076	     -1.09079413	    -43.11563740	     62.89347569	     78.29098830	     87.80335541	      0.00000000	      0.00000000	    -15.09138581	    -45.27972704	     48.67747537	     85.32610520	     87.85263003	      0.00000000	      0.00000000
      4.47500000	    -29.56031283	      0.99040234	      4.86206575	     -0.42958475	      0.70793197	     -0.89352674	     80.21109516	    -11.69440373	      6.06534527	     93.18770800	      1.62643233	     41.26060093	      0.00000000	      0.00000000	     80.33201228	     -9.59869901	      0.50325621	     92.41070528	      1.61287107	     41.56861560	      0.00000000	      0.00000000	    -14.04232737	     -2.51603339	     -5.64336034	     -0.90167976	    -42.81149535	     62.99442272	     77.72526899	     87.80047416	      0.00000000	      0.00000000	    -14.80287270	    -45.26650554	     48.85681169	     85.12975371	     87.85243513	      0.00000000	      0.00000000
      4.48000000	    -28.56708224	      1.10085242	      4.80677314	     -0.42603677	      0.71510582	     -0.89366848	     78.36609714	    -11.77757754	      5.81895670	     92.28283457	      1.61063931	     41.08049217	      0.00000000	      0.00000000	     78.42403399	     -9.53457880	      0.36271428	     91.44901173	      1.59608635	     41.59944837	      0.00000000	      0.00000000	    -14.36274863	     -2.55614081	     -5.57709530	     -0.70984134	    -42.63067654	     63.24051147	     77.30047782	     87.80085209	      0.00000000	      0.00000000	    -14.17189960	    -45.26713738	     49.48266223	     84.89268761	     87.84688083	      0.00000000	      0.00000000
      4.48500000	    -28.04798009	      1.00693641	      4.72927418	     -0.42329077	      0.72162514	     -0.89366346	     77.06081994	    -11.70393724	      5.49904738	     91.31501539	      1.59374768	     40.63219835	      0.00000000	      0.00000000	     77.14979743	     -9.54359023	      0.41906164	     90.48701665	      1.57929637	     41.26572844	      0.00000000	      0.00000000	    -14.14743259	     -2.41964507	     -5.49610387	     -0.63359083	    -42.43339966	     63.28022179	     76.87246685	     87.79638782	      0.00000000	      0.00000000	    -13.94974938	    -45.19106806	     49.68455314	     84.71178127	     87.84300727	      0.00000000	      0.00000000
      4.49000000	    -27.96220139	      0.97433421	      4.59629596	     -0.42093279	      0.72734944	     -0.89350164	     76.28303814	    -11.55532958	      5.36244930	     90.35975452	      1.57707523	     40.34642471	      0.00000000	      0.00000000	     76.36201900	     -9.56950136	      0.39910399	     89.54737315	      1.56289650	     41.01731669	      0.00000000	      0.00000000	    -13.41149928	     -2.41834233	     -5.42988937	     -0.66034321	    -42.35364877	     63.33269315	     76.84985493	     87.79825498	      0.00000000	      0.00000000	    -13.95627607	    -45.20530272	     49.75318747	     84.75950834	     87.84388484	      0.00000000	      0.00000000
      4.49500000	    -27.36148354	      0.96782389	      4.55375617	     -0.41809586	      0.73423965	     -0.89379131	     74.88232882	    -11.56389531	      5.12283866	     89.33609622	      1.55920902	     39.80596859	      0.00000000	      0.00000000	     74.94006098	     -9.48541193	      0.35253474	     88.49519018	      1.54453244	     40.89098689	      0.00000000	      0.00000000	    -13.25723026	     -2.35683044	     -5.40569117	     -0.45999298	    -42.13553544	     63.55388167	     76.29468585	     87.79571429	      0.00000000	      0.00000000	    -13.55896211	    -45.04397688	     50.09760790	     84.42689502	     87.83019487	      0.00000000	      0.00000000
      4.50000000	    -27.00683182	      1.01281512	      4.80413887	     -0.41578489	      0.74103190	     -0.89496886	     73.76636433	    -11.95778336	      4.87539166	     88.26394645	      1.54049648	     39.18251198	      0.00000000	      0.00000000	     73.80125219	     -8.96082443	      0.42872959	     87.34812506	      1.52451238	     40.58843616	      0.00000000	      0.00000000	    -12.84319141	     -2.24148701	     -5.69061052	     -0.34615122	    -42.13605295	     63.74628558	     76.15656186	     87.79070717	      0.00000000	      0.00000000	    -13.22164146	    -44.98240957	     50.45131472	     84.36137926	     87.83193171	      0.00000000	      0.00000000
      4.50500000	    -26.96596880	      1.02205730	      4.78393426	     -0.41352176	      0.74731027	     -0.89531793	     73.00764369	    -11.98002050	      4.68880612	     87.18279835	      1.52162688	     38.79625911	      0.00000000	      0.00000000	     73.01240318	     -8.84085620	      0.34728038	     86.26265330	      1.50556732	     40.22831026	      0.00000000	      0.00000000	    -12.05134166	     -2.23885762	     -5.72949223	     -0.34484294	    -42.11674169	     63.80386656	     76.14619104	     87.79431499	      0.00000000	      0.00000000	    -13.18579834	    -44.95133292	     50.55111841	     84.41794434	     87.83513734	      0.00000000	      0.00000000
      4.51000000	    -26.23492785	      0.93888722	      4.75054408	     -0.41029098	      0.75478514	     -0.89561605	     71.43951609	    -12.04322256	      4.25382326	     86.14999300	      1.50360103	     37.87216397	      0.00000000	      0.00000000	     71.43537251	     -8.81538807	      0.37693445	     85.13544391	      1.48589381	     39.90083168	      0.00000000	      0.00000000	    -11.94938852	     -2.06683053	     -5.70717506	     -0.06263713	    -41.90933161	     64.26512918	     75.61431872	     87.79814205	      0.00000000	      0.00000000	    -12.75116041	    -44.86531988	     51.14767161	     84.04122483	     87.83843466	      0.00000000	      0.00000000
      4.51500000	    -26.13190200	      0.89926910	      4.70076840	     -0.40788885	      0.76157146	     -0.89596422	     70.56121216	    -11.96168627	      4.13590217	     84.93466568	      1.48238957	     37.39272983	      0.00000000	      0.00000000	     70.55077624	     -8.69366805	      0.42103540	     83.95908462	      1.46536246	     39.51491019	      0.00000000	      0.00000000	    -11.17795343	     -1.99843140	     -5.73751846	     -0.03998452	    -41.89526273	     64.34884020	     75.58497445	     87.79487594	      0.00000000	      0.00000000	    -12.65209491	    -44.77823868	     51.24225905	     84.08855638	     87.82512448	      0.00000000	      0.00000000
